<?xml version="1.0" standalone="no"?>
<!DOCTYPE svg PUBLIC "-//W3C//DTD SVG 20010904//EN"
 "http://www.w3.org/TR/2001/REC-SVG-20010904/DTD/svg10.dtd">
<svg version="1.0" xmlns="http://www.w3.org/2000/svg"
 width="1280.000000pt" height="974.000000pt" viewBox="0 0 1280.000000 974.000000"
 preserveAspectRatio="xMidYMid meet">
<metadata>
Created by potrace 1.15, written by Peter Selinger 2001-2017
</metadata>
<g transform="translate(0.000000,974.000000) scale(0.100000,-0.100000)"
fill="#000000" stroke="none">
<path d="M3103 9620 c-481 -215 -765 -444 -907 -734 -57 -116 -83 -211 -98
-358 -6 -65 -15 -118 -18 -118 -4 0 -10 -12 -13 -27 -4 -16 -11 -35 -17 -43
-9 -13 -12 -13 -24 3 -14 18 -14 18 -18 0 -3 -10 -8 14 -12 52 -17 168 -56
330 -122 505 -39 104 -224 490 -234 490 -11 0 -187 -351 -234 -467 -57 -143
-103 -303 -122 -425 -20 -132 -16 -414 6 -528 45 -224 196 -465 304 -485 44
-9 120 25 179 79 20 19 37 32 37 28 0 -4 21 31 48 78 50 91 55 106 102 300 52
215 62 248 76 267 13 17 15 16 40 -15 40 -51 95 -74 175 -74 81 0 121 8 171
33 73 37 51 18 -35 -30 -396 -223 -589 -489 -629 -867 -18 -175 2 -253 74
-290 32 -17 198 -19 231 -4 12 6 6 -2 -13 -17 -352 -283 -515 -474 -600 -705
-45 -124 -54 -178 -54 -345 -1 -89 -4 -154 -8 -145 -4 9 -7 -20 -7 -65 -1 -45
-5 -93 -10 -107 -14 -35 -3 -91 17 -93 10 -1 35 -8 57 -17 22 -8 57 -15 78
-16 96 -1 384 131 455 208 31 34 25 24 -21 -38 -203 -269 -306 -483 -343 -707
-17 -107 -13 -568 5 -616 6 -16 11 -34 11 -40 -1 -7 -14 23 -30 66 -78 209
-207 369 -401 493 -42 27 -85 54 -95 61 -11 7 3 3 30 -8 76 -33 152 -15 191
45 20 30 48 163 41 192 -4 13 -2 66 4 118 32 305 -75 573 -329 827 -146 145
-307 264 -560 412 l-113 67 7 -97 c3 -54 8 -163 10 -243 6 -316 93 -655 227
-885 76 -130 258 -312 360 -361 40 -19 64 -32 53 -28 -11 4 -58 20 -105 36
-47 16 -137 42 -201 59 -158 40 -519 100 -519 86 0 -3 20 -49 45 -103 51 -109
49 -105 33 -101 -26 5 -14 -87 20 -154 96 -195 255 -423 387 -555 88 -88 231
-201 273 -215 19 -6 9 -7 -34 -4 -79 7 -414 24 -476 25 l-47 0 54 -86 c48 -76
53 -88 40 -101 -38 -38 -7 -109 119 -278 137 -183 266 -316 415 -428 75 -57
301 -176 337 -178 11 0 -55 -14 -145 -29 -90 -16 -165 -31 -167 -33 -2 -2 23
-33 56 -69 54 -60 74 -88 51 -74 -13 8 -30 -39 -24 -65 11 -42 59 -102 144
-180 235 -212 428 -341 627 -415 79 -30 300 -75 330 -68 12 4 22 4 22 2 0 -3
-72 -32 -160 -64 -88 -32 -159 -62 -157 -66 1 -3 30 -27 65 -52 l62 -46 -20
-20 c-49 -49 -12 -103 140 -202 233 -152 510 -270 710 -303 224 -36 471 -1
637 90 82 45 118 78 137 126 17 41 12 89 -8 89 -6 0 9 18 34 39 l44 39 -59 73
c-165 206 -357 331 -587 384 -54 12 -118 16 -246 16 l-173 -1 20 22 c24 26 40
110 22 116 -7 2 1 13 18 23 17 10 31 23 31 29 0 17 -49 109 -98 185 -91 142
-217 262 -355 339 -79 44 -215 89 -337 112 -52 10 -85 20 -74 22 13 2 37 25
58 58 22 32 44 54 54 54 10 0 51 -36 90 -79 86 -95 108 -103 185 -68 105 48
278 242 351 392 68 142 83 249 81 565 -2 274 -29 424 -140 768 l-46 143 -44
-54 c-154 -189 -283 -389 -370 -569 -106 -221 -137 -354 -141 -587 -1 -91 -6
-199 -10 -240 -5 -42 -7 -87 -6 -101 1 -14 -13 11 -31 55 -83 204 -199 355
-356 465 -19 13 -73 45 -120 72 -79 44 -96 58 -46 39 27 -11 141 15 175 39 30
21 56 81 46 105 -3 9 0 15 8 15 23 0 24 19 5 125 -10 54 -17 101 -15 103 2 2
7 -10 11 -26 4 -19 14 -32 28 -35 12 -3 42 -13 67 -22 81 -30 168 5 307 122
171 144 250 276 308 514 42 172 51 511 20 754 -14 109 -72 425 -80 433 -2 2
-59 -52 -126 -120 -67 -67 -104 -101 -80 -74 43 52 57 79 121 236 75 183 120
383 126 555 1 50 7 142 13 205 6 63 11 153 11 200 0 77 2 87 22 99 12 7 57 43
100 79 143 118 256 270 358 485 80 168 151 368 157 442 3 44 2 56 -6 45 -16
-23 -14 -12 24 119 19 66 35 122 35 124 0 6 -243 -72 -425 -137 -11 -4 3 5 30
20 28 15 83 59 123 98 191 185 313 418 402 770 40 159 58 273 40 246 -11 -17
-12 -22 21 164 11 65 19 119 17 121 -2 2 -71 -27 -155 -65z m-1116 -6452 c-3
-8 -6 -5 -6 6 -1 11 2 17 5 13 3 -3 4 -12 1 -19z"/>
<path d="M9544 9673 c5 -18 32 -168 42 -233 4 -27 2 -32 -6 -20 -20 28 0 -108
40 -266 90 -353 211 -586 402 -770 40 -39 87 -79 103 -88 36 -20 44 -23 -173
48 -95 31 -179 56 -186 56 -10 0 -7 -22 14 -88 39 -124 45 -156 30 -147 -26
16 -2 -109 45 -240 88 -246 202 -457 326 -604 57 -68 237 -223 250 -215 11 6
19 -98 23 -321 6 -258 32 -436 92 -616 42 -129 111 -282 145 -324 17 -22 -16
7 -74 64 -98 97 -106 103 -111 80 -20 -82 -66 -329 -78 -409 -8 -62 -13 -191
-12 -370 0 -242 3 -286 21 -365 58 -250 141 -390 316 -538 139 -117 226 -152
307 -122 25 9 54 18 65 18 11 1 26 13 33 27 l12 25 -5 -30 c-24 -144 -26 -170
-13 -180 7 -5 12 -20 10 -32 -4 -28 22 -79 52 -98 31 -20 156 -44 181 -34 51
20 33 5 -40 -34 -243 -128 -394 -299 -497 -567 -16 -41 -27 -64 -24 -50 3 14
1 54 -5 90 -5 36 -11 160 -13 275 -3 192 -5 218 -30 303 -71 253 -214 514
-442 806 l-77 99 -44 -134 c-120 -369 -157 -596 -148 -914 5 -188 20 -290 59
-384 63 -156 257 -385 369 -436 81 -38 102 -30 189 66 39 43 80 79 90 79 10 0
32 -22 54 -54 22 -34 45 -56 58 -58 11 -2 -37 -16 -109 -31 -228 -50 -359
-118 -506 -266 -52 -53 -111 -121 -131 -152 -41 -62 -118 -200 -118 -211 0 -4
15 -15 33 -24 17 -10 26 -19 20 -21 -26 -9 -11 -93 22 -126 15 -16 5 -17 -152
-17 -217 1 -331 -23 -484 -100 -116 -59 -258 -179 -340 -288 -24 -31 -50 -63
-57 -71 -11 -11 -8 -18 22 -42 32 -27 34 -31 25 -63 -12 -43 10 -103 50 -138
109 -97 341 -168 551 -168 257 0 580 115 890 318 151 98 189 153 141 201 -19
19 -18 20 51 70 67 48 69 51 47 61 -13 5 -89 35 -169 65 -80 31 -131 54 -115
51 33 -5 182 23 285 54 85 25 233 98 334 164 148 96 399 311 450 384 30 44 35
106 10 120 -12 7 -3 21 51 79 l65 71 -72 12 c-40 7 -115 20 -166 29 l-93 16
92 40 c242 103 446 279 665 570 90 121 134 196 134 231 0 33 -11 55 -23 47
-11 -7 21 51 75 136 15 25 26 46 24 49 -4 3 -397 -13 -521 -23 -33 -2 -51 -2
-40 2 39 11 191 129 276 213 134 134 293 360 390 556 35 70 47 137 30 158 -9
11 -2 35 33 110 41 88 43 96 25 96 -36 0 -329 -50 -442 -75 -245 -55 -429
-127 -562 -221 -160 -112 -289 -265 -358 -426 l-34 -76 1 321 1 322 -28 90
c-58 185 -151 361 -289 545 -55 74 -62 87 -32 58 73 -68 345 -188 429 -188 19
0 60 9 90 19 38 14 55 16 56 8 0 -7 5 2 10 18 6 19 5 49 -2 82 -5 28 -12 139
-14 245 -4 214 -18 306 -66 429 -78 202 -255 419 -504 618 -44 35 -85 69 -92
75 -9 8 17 11 97 11 120 0 150 12 179 71 36 73 21 309 -29 464 -77 236 -265
446 -542 608 -43 24 -78 46 -78 48 0 3 17 -3 37 -11 23 -10 69 -16 119 -16 92
-1 127 12 186 69 l38 36 14 -35 c7 -19 22 -68 31 -109 65 -283 80 -329 139
-436 48 -88 63 -103 156 -161 107 -66 191 -18 302 172 79 137 116 268 126 445
17 312 -12 495 -125 780 -41 105 -212 453 -233 474 -5 5 -41 -56 -84 -141
-174 -348 -253 -590 -275 -840 -5 -48 -9 -70 -10 -48 l-2 40 -14 -32 c-19 -45
-33 -41 -48 14 -12 45 -12 45 -18 17 -4 -17 -7 6 -8 57 -6 457 -274 804 -841
1089 -94 47 -318 150 -328 150 -2 0 -1 -8 2 -17z m923 -3015 c-3 -7 -5 -2 -5
12 0 14 2 19 5 13 2 -7 2 -19 0 -25z m308 -908 c10 -11 16 -20 13 -20 -3 0
-13 9 -23 20 -10 11 -16 20 -13 20 3 0 13 -9 23 -20z m402 -1482 c-3 -8 -6 -5
-6 6 -1 11 2 17 5 13 3 -3 4 -12 1 -19z"/>
<path d="M884 7943 c-45 -150 -101 -383 -119 -503 -21 -132 -28 -430 -14 -560
27 -251 144 -486 319 -643 30 -27 68 -56 84 -64 44 -23 109 -19 146 7 99 71
176 288 185 529 3 68 7 126 9 130 2 3 0 53 -5 109 -20 230 -99 429 -276 694
-88 133 -281 386 -295 387 -4 1 -19 -38 -34 -86z"/>
<path d="M11794 7918 c-292 -366 -422 -613 -470 -889 -21 -122 -13 -409 15
-531 64 -281 192 -402 329 -312 125 82 268 280 327 454 32 94 58 235 50 267
-3 14 -2 22 3 19 4 -3 8 99 7 227 -2 241 -12 324 -66 542 -31 125 -93 335
-100 335 -3 0 -46 -51 -95 -112z"/>
<path d="M12335 6501 c-272 -165 -437 -285 -565 -411 -115 -114 -180 -203
-245 -335 -80 -163 -88 -203 -91 -445 -4 -291 15 -371 97 -412 56 -29 89 -22
231 46 119 57 144 74 225 150 180 169 280 345 352 616 40 150 73 347 66 388
-4 20 -2 32 5 32 6 0 8 4 5 10 -3 5 -1 83 5 172 7 90 10 181 8 203 l-3 41 -90
-55z"/>
<path d="M3007 3938 c-142 -264 -243 -546 -276 -768 -18 -118 -16 -441 3 -530
47 -216 95 -312 222 -442 68 -69 104 -83 154 -57 99 49 229 247 296 449 27 83
28 91 28 310 1 259 -6 308 -81 535 -32 97 -82 209 -159 364 -63 123 -117 228
-123 234 -5 5 -30 -31 -64 -95z"/>
<path d="M9633 3843 c-218 -426 -276 -644 -269 -1018 3 -132 6 -160 31 -235
66 -203 206 -415 298 -449 61 -23 77 -16 165 75 173 180 228 372 226 784 -1
192 -36 356 -126 590 -43 113 -206 450 -217 450 -3 0 -52 -89 -108 -197z"/>
<path d="M3622 3192 c-37 -246 -44 -362 -39 -606 6 -245 17 -332 64 -480 53
-169 166 -347 284 -447 98 -83 168 -129 196 -130 15 -1 -10 -7 -57 -14 -233
-35 -439 -113 -650 -245 -103 -64 -390 -269 -390 -279 0 -3 30 -17 67 -30 37
-14 61 -27 53 -29 -22 -7 -30 -23 -30 -58 0 -56 49 -86 226 -137 545 -159 954
-120 1252 119 106 85 163 158 170 220 3 31 1 49 -8 54 -9 6 -1 23 29 63 32 44
38 59 29 67 -44 38 -158 113 -225 147 -95 49 -180 78 -304 103 -52 10 -82 19
-67 19 49 2 117 141 149 306 16 82 23 376 10 452 -33 193 -122 380 -279 583
-68 88 -305 336 -402 420 l-56 48 -22 -146z"/>
<path d="M8973 3163 c-178 -176 -274 -287 -357 -414 -101 -152 -175 -336 -196
-487 -12 -92 -7 -364 10 -437 19 -89 60 -201 90 -249 25 -39 35 -46 62 -47 37
-1 32 -3 -92 -26 -163 -30 -372 -131 -504 -244 -5 -5 9 -34 33 -69 24 -33 37
-59 29 -58 -9 2 -13 -11 -13 -48 1 -45 6 -59 42 -107 56 -73 189 -178 288
-226 262 -129 572 -143 967 -46 218 53 313 91 341 136 15 24 0 89 -21 90 -15
0 20 17 107 50 23 9 18 14 -80 86 -397 293 -636 406 -944 448 -49 7 -77 13
-62 14 36 1 196 120 262 194 133 147 218 328 260 552 9 49 14 101 11 117 -3
16 -2 27 3 24 4 -3 7 128 6 292 -1 267 -4 314 -27 460 -14 90 -28 165 -30 168
-3 2 -86 -76 -185 -173z"/>
<path d="M8195 2415 c-398 -90 -651 -189 -834 -325 -241 -180 -360 -390 -404
-713 -10 -71 -11 -102 -3 -110 6 -7 12 -25 13 -42 5 -70 50 -103 151 -112 167
-14 393 59 572 185 85 59 220 197 292 298 82 115 126 190 222 381 85 169 100
216 76 253 -8 12 -10 12 -10 1 0 -8 -3 -12 -6 -9 -3 3 13 54 36 113 23 58 40
107 39 109 -2 1 -67 -12 -144 -29z"/>
<path d="M4501 2344 c40 -100 46 -119 29 -109 -13 8 -24 -40 -16 -77 7 -36
149 -320 208 -418 110 -181 261 -353 388 -443 178 -125 405 -198 572 -184 102
9 149 45 152 116 1 17 6 33 12 35 14 5 10 59 -13 196 -37 221 -135 408 -292
552 -192 179 -472 300 -913 398 -76 16 -144 30 -152 30 -9 0 -2 -27 25 -96z"/>
<path d="M6338 1296 c-137 -38 -221 -175 -189 -311 6 -27 13 -72 14 -100 6
-100 74 -182 176 -212 70 -20 143 -6 204 40 51 39 100 128 94 172 -2 16 2 45
10 63 8 19 14 60 14 92 1 174 -160 302 -323 256z"/>
<path d="M5240 1085 c-156 -29 -345 -110 -520 -225 -118 -78 -190 -133 -353
-274 l-129 -111 69 -21 c37 -12 63 -22 56 -23 -6 -1 -16 -15 -22 -32 -15 -42
6 -80 56 -102 158 -68 610 -117 826 -88 251 34 483 148 635 314 72 80 102 134
102 190 0 35 -3 46 -12 41 -11 -7 20 52 59 112 13 21 11 24 -44 59 -124 78
-284 143 -407 164 -80 15 -224 12 -316 -4z"/>
<path d="M7260 1093 c-62 -10 -177 -46 -238 -73 -83 -38 -232 -122 -232 -132
0 -4 16 -33 35 -65 19 -32 30 -59 25 -61 -6 -2 -10 -25 -10 -51 0 -53 30 -109
102 -188 152 -166 384 -280 635 -314 220 -29 696 23 834 92 45 22 66 66 48
101 -6 12 -16 26 -21 29 -5 3 21 14 57 23 36 10 65 21 64 25 0 3 -29 31 -65
61 -36 30 -107 90 -157 133 -123 104 -334 246 -449 301 -176 85 -345 127 -507
125 -53 -1 -107 -4 -121 -6z"/>
</g>
</svg>
